<?xml version="1.0" encoding="utf-8"?>

<!DOCTYPE svg PUBLIC "-//W3C//DTD SVG 1.1//EN" "http://www.w3.org/Graphics/SVG/1.1/DTD/svg11.dtd">
<!-- Uploaded to: SVG Repo, www.svgrepo.com, Generator: SVG Repo Mixer Tools -->
<svg height="800px" width="800px" version="1.1" id="_x32_" xmlns="http://www.w3.org/2000/svg" xmlns:xlink="http://www.w3.org/1999/xlink" 
	 viewBox="0 0 512 512"  xml:space="preserve">
<style type="text/css">
	.st0{fill:#1C274C;}
</style>
<g>
	<path class="st0" d="M296.81,161.734c2.532-1.052,5.042-2.166,7.529-3.341c2.334-1.098,4.637-2.257,6.888-3.524
		c-21.114-32.128,15.119-56.904,43.724-60.497c29.016-3.623,68.628,5.714,82.732,34.242c14.782,29.901-16.751,51.435-42.678,55.744
		c-12.556,2.082-25.562,1.587-37.964-1.182c-4.654-1.037-5.073-1.32-8.04,2.036c-3.281,3.722-6.24,7.673-8.994,11.793
		c37.384,12.578,96.699,9.832,119.102-28.185c14.386-24.409,0.512-51.237-20.138-66.607c-20.931-15.553-47.796-22.686-73.648-22.686
		c-28.811,0-64.54,9.498-78.804,37.148c-7.238,14.036-5.675,30.328,2.357,43.631C291.501,164.725,292.409,163.55,296.81,161.734z"/>
	<path class="st0" d="M93.855,199.812c24.714,6.873,51.686,5.447,75.92-2.662c-2.296-3.493-9.306-15.813-13.592-14.608
		c-5.18,1.465-10.511,2.479-15.859,3.067c-12.494,1.38-25.325,0.533-37.4-3.074c-12.464-3.837-24.775-10.71-31.534-22.273
		c-7.544-12.99-4.538-27.98,4.554-39.33c18.52-22.51,52.442-30.1,80.276-25.668c27.705,4.409,60.55,28.589,41.557,59.292
		c3.585,1.945,17.079,10.397,20.359,8.581c2.701-1.495,4.638-8.314,5.614-10.923c5.889-15.515,2.265-32.198-8.36-44.676
		c-17.285-20.306-46.629-27.614-72.343-27.552c-22.853,0-46.278,5.614-65.913,17.491c-19.68,11.907-37.995,33.181-33.288,57.789
		C48.438,179.294,71.963,193.726,93.855,199.812z"/>
	<path class="st0" d="M371.587,338.29c7.36,14.706,26.018,21.785,41.542,16.125c24.585-8.97,14.577-37.072-5.332-44.356
		c-10.839-3.257-20.893-5.172-31.106-11.16c-19.566-11.457-36.774-28.269-49.262-47.156c-5.476-8.284-11.678-18.551-11.373-28.864
		c0.298-10.16,5.408-20.13,10.74-28.544c11.587-18.292,29.733-35.699,51.374-40.772c7.865-1.632,18.513-3.829,18.841-14.21
		c0.603-19.161-31.732-21.8-42.952-12.845c-2.342,1.861-3.371,3.509-4.447,6.079c-2.22,5.302-4.096,9.566-8.414,13.876
		c-15.866,15.805-39.39,25.21-60.641,30.977c-22.694,6.148-43.098,3.57-65.082-4.317c-18.422-6.614-45.462-17.461-54.341-36.538
		c-0.9-1.93-1.037-4.035-2.014-5.934c-3.906-6.996-12.99-9.421-20.451-9.421c-10.244-0.03-29.108,6.499-25.919,20.13
		c1.793,7.658,9.146,10.405,15.919,11.724c16.851,3.296,31.077,13.395,42.526,25.928c13.387,14.652,27.849,36.248,19.832,56.644
		c-8.047,20.466-24.73,38.46-41.64,52.046c-12.815,10.298-26.767,17.902-42.785,21.625c-14.532,3.379-30.832,17.788-22.701,34.044
		c4.89,9.778,16.69,13.623,26.98,12.799c7.994-0.64,23.868-5.789,26.439-14.806c2.8-9.847,9.61-18.071,16.995-24.92
		c16.704-15.485,37.91-26.508,59.108-34.44c21.496-8.048,41.939-11.701,64.418-5.927c22.472,5.774,44.471,15.828,63.548,29.032
		C354.333,314.08,364.562,324.255,371.587,338.29z"/>
	<path class="st0" d="M138.668,121.23C139.401,121.23,136.342,121.222,138.668,121.23L138.668,121.23z"/>
	<path class="st0" d="M499.812,304.979c-22.77-37.453-68.056-58.178-111.009-58.178c-14.829,0-29.772,2.418-43.655,7.696
		c3.982,5.187,8.376,10.054,13.029,14.654c3.707,3.662,5.263,1.991,10.015,0.778c7.566-1.976,15.401-2.876,23.212-2.876
		c20.504,0,41.182,6.278,58.101,17.888c17.964,12.258,32.434,31.724,33.792,53.99c1.244,20.488-9.45,39.314-26.301,50.543
		c-35.882,23.913-88.705,14.752-118.416-14.982c-15.08-15.088-24.554-36.614-19.955-58.078c0.503-2.358,1.167-4.684,1.976-6.95
		c1.213-3.41-0.206-2.96-3.067-4.569c-3.951-2.212-7.986-4.272-12.082-6.202c-2.228-1.045-6.743-3.928-8.497-2.952
		c-0.474,0.267-0.672,1.594-1.038,2.029c-20.947,44.898,9.695,92.382,48.91,114.418c37.652,21.069,87.248,25.157,125.685,3.685
		C511.064,393.211,524.038,344.842,499.812,304.979z"/>
	<path class="st0" d="M191.759,305.269c-3.059,1.701-1.396,2.716-0.251,5.774c1.242,3.31,2.113,6.743,2.67,10.236
		c3.493,22.022-7.186,43.571-23.189,58.201c-30.954,28.299-84.006,35.935-118.743,10.008C35.15,376.734,25.89,355.896,29.49,334.675
		c3.692-21.763,19.177-39.734,37.605-50.94c17.941-10.908,39.421-16.133,60.36-14.676c5.385,0.397,10.74,1.205,15.98,2.517
		c4.523,1.13,3.882,0.931,7.147-1.243c5.271-3.516,9.786-10.153,13.677-15.058c-13.15-4.584-27.018-6.788-40.939-6.788
		c-43.503,0-89.407,21.152-111.917,59.506c-24.836,42.311-7.468,92.343,36.202,113.152c40.489,19.298,91.07,12.922,128.004-11.427
		c37.102-24.448,62.115-72.922,38.064-115.121C206.153,297.686,198.861,301.318,191.759,305.269z"/>
</g>
</svg>