<?xml version="1.0" encoding="UTF-8" standalone="no"?>
<!DOCTYPE svg PUBLIC "-//W3C//DTD SVG 1.1//EN" "http://www.w3.org/Graphics/SVG/1.1/DTD/svg11.dtd">
<svg width="100%" height="100%" viewBox="0 0 800 800" version="1.1" xmlns="http://www.w3.org/2000/svg" xmlns:xlink="http://www.w3.org/1999/xlink" xml:space="preserve" xmlns:serif="http://www.serif.com/" style="fill-rule:evenodd;clip-rule:evenodd;stroke-linejoin:round;stroke-miterlimit:2;">
    <path d="M268.55,53.6C262.644,51.238 256.341,50.024 249.98,50.024C228.519,50.024 209.342,63.842 202.55,84.2L114,350L50,350C22.571,350 -0,372.571 0,400C0,427.429 22.571,450 50,450L750,450C777.429,450 800,427.429 800,400C800,372.571 777.429,350 750,350L686,350L597.5,84.2C590.708,63.842 571.531,50.024 550.07,50.024C543.709,50.024 537.406,51.238 531.5,53.6L400,86.15L268.55,53.6ZM580.65,350L519.35,166.1L418.55,186.4C406.645,191.156 393.355,191.156 381.45,186.4L280.65,166.1L219.35,350L580.65,350Z" style="fill:rgb(44,62,80);stroke:rgb(44,62,80);stroke-width:1px;"/>
    <g transform="matrix(1,0,0,1,0,-60)">
        <path d="M100,550C72.571,550 50,572.571 50,600C50,627.429 72.571,650 100,650C127.6,650 149,693.75 162.2,717.95C179.718,750.011 213.465,772.017 250,772L277.9,772C320.837,772.017 359.21,742.38 372.8,701.65L378.05,665.8C381.204,656.389 390.075,650.007 400,650.007C409.925,650.007 418.796,656.389 421.95,665.8L427.2,701.6C440.766,742.332 479.118,769.989 522.05,770L550,770C586.517,769.998 620.24,749.995 637.75,717.95C651.05,693.75 672.4,650 700,650C727.429,650 750,627.429 750,600C750,572.571 727.429,550 700,550L100,550Z" style="fill:rgb(44,62,80);fill-rule:nonzero;stroke:rgb(44,62,80);stroke-width:1px;"/>
    </g>
</svg>
