<?xml version="1.0" standalone="no"?>
<!DOCTYPE svg PUBLIC "-//W3C//DTD SVG 20010904//EN"
 "http://www.w3.org/TR/2001/REC-SVG-20010904/DTD/svg10.dtd">
<svg version="1.0" xmlns="http://www.w3.org/2000/svg"
 width="700.000000pt" height="700.000000pt" viewBox="0 0 700.000000 700.000000"
 preserveAspectRatio="xMidYMid meet">
<metadata>
Created by potrace 1.14, written by Peter Selinger 2001-2017
</metadata>
<g transform="translate(0.000000,700.000000) scale(0.100000,-0.100000)"
fill="#000000" stroke="none">
<path d="M1197 6463 c-1 0 -20 -4 -42 -7 -69 -11 -128 -23 -132 -26 -2 -2 -6
-3 -10 -4 -21 -3 -111 -41 -133 -55 -13 -9 -24 -14 -25 -12 0 7 -105 -62 -105
-70 0 -5 -5 -9 -11 -9 -13 0 -114 -101 -156 -155 -29 -38 -113 -186 -115 -202
0 -5 -4 -19 -9 -32 -5 -13 -10 -34 -11 -47 -1 -13 -5 -24 -8 -24 -3 0 -6 -8
-6 -17 -1 -10 -5 -34 -9 -53 -9 -37 -15 -4118 -6 -4134 2 -5 6 -26 8 -45 3
-36 10 -74 13 -78 2 -2 3 -6 4 -10 24 -92 109 -273 128 -273 4 0 8 -6 8 -14 0
-8 7 -17 16 -20 9 -4 15 -9 12 -11 -9 -10 99 -111 173 -161 99 -69 169 -98
330 -141 13 -3 318 -8 677 -9 l652 -3 223 -60 c123 -33 232 -62 243 -64 10 -2
26 -7 34 -10 8 -4 42 -13 75 -21 33 -8 85 -21 115 -30 30 -9 66 -19 80 -22 14
-3 48 -12 76 -20 28 -8 60 -16 70 -19 11 -2 34 -8 52 -14 17 -5 32 -7 32 -4 0
3 6 1 13 -5 6 -5 26 -12 42 -15 17 -3 42 -10 58 -16 15 -6 27 -8 27 -6 0 2 11
0 25 -5 14 -5 36 -12 48 -14 12 -3 71 -18 131 -35 61 -16 114 -28 118 -25 4 3
8 0 8 -5 0 -6 7 -11 16 -11 9 0 49 -10 88 -21 39 -12 81 -21 94 -21 12 0 22
-4 22 -8 0 -6 54 -19 83 -20 4 0 24 -7 44 -15 20 -9 43 -13 50 -11 7 3 13 1
13 -5 0 -6 8 -9 18 -7 9 1 22 0 27 -3 6 -3 30 -11 55 -18 25 -7 59 -16 75 -21
29 -9 58 -15 120 -27 45 -8 192 -8 256 -1 56 7 67 10 104 24 11 4 29 9 40 11
28 5 173 79 220 113 83 59 215 201 229 248 4 12 12 22 17 22 5 0 8 3 7 8 -1 4
6 22 15 40 10 17 14 32 10 32 -5 0 -2 4 4 8 7 4 14 17 16 27 2 11 10 34 16 50
7 17 14 39 16 50 2 11 16 65 31 120 15 55 28 107 28 115 1 8 8 25 14 38 7 12
11 22 8 22 -2 0 2 20 9 44 8 24 11 47 8 50 -4 3 -1 6 4 6 6 0 10 8 8 18 -1 9
0 22 4 27 3 6 6 15 8 20 1 6 9 37 19 70 9 33 17 65 18 70 1 6 5 16 9 23 5 6 6
16 2 21 -3 5 -1 12 5 16 6 4 8 10 5 15 -3 5 -1 11 5 15 6 4 8 10 5 15 -3 5 -2
18 4 27 5 10 11 32 14 50 3 17 8 36 11 41 3 4 8 22 11 38 8 39 13 59 15 59 1
0 3 8 6 17 2 10 6 26 8 35 3 10 5 20 6 23 1 3 3 10 5 15 1 6 3 12 4 15 1 3 5
16 8 30 6 33 9 42 16 60 4 8 9 26 11 40 3 14 5 25 7 25 1 0 3 9 5 20 1 11 10
45 19 75 18 62 24 85 31 117 2 12 9 34 14 49 6 14 8 30 4 35 -3 5 -1 9 4 9 5
0 9 6 9 13 1 6 13 55 28 107 15 52 28 104 30 115 2 11 4 20 5 20 3 0 12 39 13
58 1 9 4 17 7 17 4 0 7 6 8 13 0 6 4 26 8 42 3 17 7 37 8 45 1 9 5 20 8 26 4
6 9 21 12 35 3 13 13 51 22 84 9 33 18 67 19 75 2 8 4 15 5 15 1 0 3 7 5 15 2
8 7 26 10 40 3 14 8 36 11 49 3 14 7 28 10 33 3 4 7 16 9 26 2 10 10 42 19 70
8 29 12 52 8 52 -3 0 -1 5 5 11 6 6 9 18 6 25 -3 8 1 14 8 14 7 0 10 3 7 6 -4
3 -2 20 3 37 5 18 12 45 15 62 3 16 8 32 12 35 4 3 8 10 9 17 1 6 5 26 8 44 3
18 20 82 36 142 34 122 40 146 41 165 1 6 5 12 10 12 5 0 6 4 3 10 -3 6 -3 16
2 23 4 6 8 17 9 22 4 21 14 61 24 100 6 22 13 47 15 55 2 8 4 17 5 20 1 3 2 9
1 14 -1 4 3 14 10 22 6 7 8 18 4 24 -3 5 -2 10 4 10 6 0 8 7 5 15 -4 8 -2 15
3 15 5 0 9 8 10 18 1 19 4 31 27 117 9 33 19 71 22 84 3 14 7 28 9 31 2 4 7
21 10 38 3 17 10 44 17 59 6 15 12 33 12 38 2 10 18 93 22 108 1 4 3 8 4 10 1
1 3 18 4 37 1 19 4 40 7 45 5 9 4 150 -1 150 -1 0 -3 16 -5 35 -5 58 -42 191
-62 223 -4 7 -8 14 -8 17 -1 14 -50 100 -57 100 -4 0 -8 5 -8 11 0 25 -130
169 -152 169 -5 0 -6 5 -3 10 3 6 2 10 -3 10 -5 0 -30 16 -56 35 -25 20 -46
32 -46 28 0 -4 -4 -3 -8 3 -10 16 -131 74 -153 74 -10 0 -21 5 -24 10 -4 6
-10 8 -15 5 -5 -3 -11 -1 -15 5 -4 6 -11 8 -16 5 -5 -4 -15 -3 -21 2 -7 4 -15
8 -18 8 -21 3 -77 18 -85 23 -5 3 -16 7 -25 8 -20 3 -43 9 -115 29 -33 9 -67
18 -75 19 -8 2 -22 6 -30 9 -18 6 -96 27 -130 34 -14 2 -32 7 -40 10 -8 3 -19
7 -25 8 -5 2 -64 17 -130 35 -66 17 -127 34 -135 36 -21 5 -201 54 -225 60
-11 4 -35 8 -52 11 -18 3 -33 9 -33 15 0 5 -4 7 -8 4 -13 -8 -27 6 -65 67 -46
72 -153 178 -232 228 -33 21 -65 42 -70 47 -6 5 -16 7 -23 4 -6 -2 -12 0 -12
5 0 8 -54 32 -77 35 -5 1 -23 7 -40 15 -18 7 -33 11 -33 8 0 -2 -11 0 -24 4
-13 5 -54 13 -92 17 -55 5 -2951 13 -2957 7z m2881 -564 c29 -1 55 -6 58 -11
3 -5 9 -6 14 -3 5 3 11 1 15 -5 4 -6 11 -8 16 -5 5 4 9 1 9 -6 0 -7 3 -10 6
-6 6 5 24 -8 67 -48 35 -32 69 -103 71 -146 0 -21 3 -39 6 -39 8 0 5 -94 -3
-107 -5 -7 -5 -13 0 -13 10 0 10 -331 -1 -348 -4 -6 -4 -12 1 -12 10 0 10 -91
0 -107 -5 -7 -5 -13 0 -13 10 0 10 -331 -1 -348 -4 -6 -4 -12 1 -12 10 0 10
-91 0 -107 -5 -7 -5 -13 0 -13 10 0 10 -171 0 -187 -5 -7 -5 -13 0 -13 10 0
10 -91 0 -107 -5 -7 -5 -13 0 -13 10 0 10 -331 -1 -348 -4 -6 -4 -12 1 -12 10
0 10 -91 0 -107 -5 -7 -5 -13 0 -13 10 0 10 -331 -1 -348 -4 -6 -4 -12 1 -12
10 0 10 -91 0 -107 -5 -7 -5 -13 0 -13 10 0 10 -171 0 -187 -5 -7 -5 -13 0
-13 10 0 10 -91 0 -107 -5 -7 -5 -13 0 -13 10 0 10 -331 -1 -348 -4 -6 -4 -12
1 -12 10 0 10 -91 0 -107 -5 -7 -5 -13 0 -13 10 0 10 -331 -1 -348 -4 -6 -4
-12 1 -12 10 0 10 -91 0 -107 -5 -7 -5 -13 0 -13 10 0 10 -211 0 -228 -5 -6
-4 -12 0 -12 16 0 2 -120 -21 -173 -20 -48 -87 -114 -142 -139 l-49 -22 -1460
0 c-1637 -1 -1507 -7 -1593 72 -38 35 -79 98 -74 115 1 4 -2 7 -6 7 -5 0 -9
15 -10 33 -7 101 -6 4027 1 4027 4 0 7 10 7 23 0 13 5 28 12 35 7 7 9 12 4 12
-4 0 3 14 15 31 28 40 79 92 79 82 0 -4 7 1 15 11 8 11 15 17 15 13 0 -4 12
-2 28 4 15 6 45 13 67 15 22 3 40 6 41 7 3 3 2754 -1 2812 -4z m912 -504 c8
-2 15 -4 15 -5 0 -1 9 -3 20 -5 11 -2 35 -8 53 -13 18 -6 33 -11 35 -11 1 0 9
-2 17 -4 8 -3 62 -17 120 -32 58 -14 113 -31 124 -36 13 -8 16 -7 11 1 -4 7 4
6 21 -3 16 -8 56 -20 89 -27 33 -7 67 -16 75 -20 8 -4 29 -10 45 -14 29 -5 68
-14 93 -22 7 -2 13 -3 15 -4 5 0 113 -32 127 -37 8 -4 17 -7 20 -7 18 -3 80
-48 80 -57 0 -7 3 -9 7 -6 3 4 16 -8 29 -26 28 -42 54 -104 46 -111 -3 -3 -1
-6 4 -6 14 0 9 -71 -11 -160 -4 -14 -7 -29 -8 -35 -2 -5 -6 -16 -10 -22 -5 -7
-5 -17 -2 -23 3 -5 1 -10 -6 -10 -7 0 -10 -3 -7 -6 4 -3 2 -20 -3 -37 -6 -18
-12 -39 -14 -47 -1 -8 -11 -42 -20 -75 -9 -33 -18 -69 -20 -80 -2 -11 -4 -20
-5 -20 -1 0 -3 -7 -5 -15 -2 -8 -13 -50 -25 -92 -11 -43 -23 -85 -25 -95 -2
-10 -8 -32 -14 -50 -5 -17 -7 -34 -3 -37 3 -3 -1 -6 -8 -6 -7 0 -11 -3 -8 -6
3 -3 -5 -44 -19 -92 -13 -48 -26 -98 -29 -112 -3 -14 -8 -34 -11 -45 -4 -11
-8 -23 -9 -27 -1 -5 -3 -10 -4 -13 -1 -3 -4 -9 -5 -15 -1 -5 -4 -12 -5 -15 -1
-3 -3 -13 -4 -22 -1 -10 -5 -28 -9 -40 -4 -12 -10 -32 -13 -45 -6 -28 -9 -38
-17 -58 -4 -13 -12 -45 -34 -135 -9 -40 -12 -50 -13 -52 -2 -2 -4 -7 -5 -13
-1 -5 -3 -11 -5 -12 -2 -3 -6 -21 -15 -63 -9 -40 -11 -47 -18 -65 -4 -13 -16
-59 -31 -120 -2 -8 -9 -35 -16 -60 -7 -25 -13 -49 -15 -55 -1 -5 -4 -17 -7
-25 -3 -8 -16 -53 -28 -100 -22 -85 -27 -104 -36 -149 -3 -14 -8 -29 -12 -35
-3 -6 -7 -15 -8 -21 -15 -71 -26 -109 -37 -122 -6 -9 -6 -13 3 -13 8 0 9 -4 3
-12 -12 -17 -34 -86 -36 -115 -1 -13 -4 -23 -7 -23 -3 0 -7 -14 -8 -32 -2 -18
-8 -36 -15 -40 -7 -4 -9 -8 -5 -8 4 0 2 -15 -3 -32 -6 -18 -12 -42 -14 -53 -6
-30 -13 -60 -15 -60 -2 0 -7 -20 -15 -59 -3 -16 -8 -33 -11 -38 -3 -4 -7 -16
-9 -26 -1 -9 -8 -37 -15 -62 -7 -25 -14 -52 -15 -60 -2 -8 -4 -15 -5 -15 -3 0
-12 -39 -13 -57 -1 -10 -5 -18 -9 -18 -4 0 -7 -3 -6 -7 2 -13 -13 -87 -23
-108 -5 -11 -10 -31 -13 -45 -2 -14 -10 -43 -18 -66 -8 -23 -14 -48 -12 -57 1
-10 -1 -17 -5 -17 -4 0 -8 -6 -9 -12 0 -7 -4 -26 -7 -43 -4 -16 -8 -37 -9 -45
0 -8 -3 -17 -7 -20 -4 -4 -12 -31 -44 -160 -2 -8 -4 -17 -5 -20 -1 -3 -3 -9
-4 -15 -1 -5 -5 -17 -8 -25 -4 -8 -10 -28 -14 -45 -4 -16 -8 -34 -10 -40 -2
-5 -5 -20 -8 -32 -3 -13 -8 -32 -11 -43 -3 -11 -7 -28 -9 -38 -37 -159 -177
-258 -330 -231 -55 10 -43 7 -254 64 -29 8 -56 15 -60 15 -7 0 33 25 58 36 42
17 80 39 80 46 0 3 8 9 18 12 9 3 28 16 42 28 14 13 44 40 68 61 23 20 40 37
37 37 -3 0 4 9 15 20 11 11 20 25 20 31 0 5 5 7 10 4 6 -3 10 1 10 9 0 9 5 16
10 16 6 0 10 6 10 14 0 8 6 21 13 28 13 14 67 112 69 125 1 5 7 22 14 39 7 17
15 44 18 60 2 16 5 29 6 29 2 0 6 21 15 75 5 25 9 898 10 1940 1 1042 3 1896
4 1897 0 1 16 -3 34 -8 17 -6 39 -12 47 -14z"/>
<path d="M1491 5541 c-14 -15 -55 -72 -91 -126 -36 -55 -67 -102 -70 -105 -14
-12 -55 -86 -57 -104 -2 -10 4 -30 12 -43 9 -12 12 -23 8 -23 -5 0 -3 -4 3 -8
6 -4 44 -56 84 -117 40 -60 77 -111 82 -113 4 -2 8 -10 8 -18 0 -21 45 -46 77
-42 26 3 50 24 81 73 16 26 48 75 64 99 7 10 24 32 36 47 13 16 20 29 15 29
-4 0 -3 4 3 8 7 4 24 29 38 55 29 56 27 63 -40 159 -19 26 -34 52 -34 58 0 5
-4 10 -8 10 -5 0 -19 19 -32 43 -25 44 -33 56 -62 88 -10 10 -16 19 -13 19 3
0 0 6 -7 14 -7 8 -15 14 -18 14 -3 0 -7 1 -10 2 -26 10 -46 5 -69 -19z"/>
<path d="M2624 4681 c-3 -3 -9 -6 -12 -7 -30 -4 -94 -72 -154 -164 -9 -14 -24
-34 -35 -45 -10 -11 -26 -33 -36 -48 -10 -16 -25 -36 -32 -45 -23 -28 -99
-128 -115 -152 -8 -12 -20 -28 -25 -34 -6 -6 -28 -36 -50 -66 -41 -57 -44 -61
-73 -97 -9 -11 -24 -31 -32 -44 -8 -12 -22 -30 -30 -39 -8 -9 -31 -38 -49 -66
-19 -27 -37 -51 -41 -54 -16 -15 -65 -87 -67 -99 -1 -8 -5 -17 -10 -20 -11 -8
-9 -71 5 -101 6 -14 19 -36 30 -50 69 -85 152 -201 152 -210 0 -6 5 -8 10 -5
6 3 10 0 10 -7 0 -7 13 -27 28 -45 15 -18 43 -54 62 -80 19 -26 40 -53 45 -59
6 -6 17 -22 25 -34 8 -12 21 -28 28 -36 6 -7 12 -15 12 -19 0 -4 6 -12 13 -19
6 -7 21 -25 32 -40 11 -16 31 -43 45 -61 14 -18 33 -44 42 -57 145 -199 195
-248 251 -248 32 0 117 36 117 49 0 5 8 17 18 29 9 11 24 30 32 42 8 13 24 31
34 41 11 11 16 19 10 19 -5 0 -4 4 2 8 6 4 30 34 55 67 24 33 46 62 49 65 3 3
17 21 30 40 13 19 29 40 35 47 23 27 34 42 100 133 38 52 72 97 75 100 3 3 17
21 30 40 33 47 42 59 63 78 9 9 17 22 17 30 0 7 7 15 15 18 8 4 12 10 9 15 -3
5 -1 9 5 9 5 0 20 17 32 38 13 20 27 39 31 40 20 9 55 98 52 132 -4 36 -86
170 -104 170 -6 0 -10 6 -10 13 0 8 -9 22 -20 32 -11 10 -20 24 -20 32 0 7 -4
13 -9 13 -6 0 -20 18 -32 40 -12 22 -25 38 -27 35 -5 -5 -52 62 -52 74 0 5 -7
11 -15 15 -8 3 -15 11 -15 17 0 6 -11 22 -25 35 -14 13 -25 26 -25 29 0 3 -22
35 -50 70 -27 35 -50 67 -50 70 0 3 -13 20 -30 38 -16 18 -30 35 -30 40 0 7
-11 21 -56 71 -13 15 -24 31 -24 35 0 4 -9 16 -20 26 -11 10 -20 22 -20 27 0
4 -7 16 -15 26 -68 77 -86 94 -102 97 -10 2 -18 4 -18 6 0 5 -66 5 -71 0z"/>
<path d="M3730 2452 c-16 -16 -30 -32 -30 -35 0 -9 -64 -101 -72 -105 -5 -2
-8 -10 -8 -18 0 -8 -4 -14 -10 -14 -5 0 -10 -4 -10 -10 0 -5 -18 -36 -41 -69
-22 -32 -42 -67 -43 -77 -3 -17 37 -101 53 -114 10 -7 126 -184 125 -190 -1
-13 54 -60 78 -65 23 -6 34 -1 66 31 21 22 38 41 38 44 0 5 75 122 84 130 10
9 31 45 36 63 4 9 9 17 13 17 12 0 37 54 35 75 -3 30 -15 65 -23 65 -4 0 -18
19 -31 43 -13 23 -26 44 -30 47 -3 3 -31 44 -62 91 -64 96 -75 108 -112 115
-19 3 -34 -3 -56 -24z"/>
</g>
</svg>
